<svg width="20" height="20" viewBox="0 0 20 20" fill="none" xmlns="http://www.w3.org/2000/svg">
<rect width="20" height="20" fill="#FFCC29"/>
<path d="M8.73174 14C8.61354 14.0002 8.49645 13.9776 8.3872 13.9334C8.27795 13.8892 8.17869 13.8243 8.09511 13.7425L4.27535 10.0005C4.18929 9.91923 4.12062 9.82197 4.07335 9.71441C4.02608 9.60684 4.00116 9.49114 4.00004 9.37404C3.99892 9.25694 4.02162 9.1408 4.06681 9.03238C4.11201 8.92397 4.1788 8.82546 4.26329 8.74259C4.34778 8.65973 4.44827 8.59418 4.5589 8.54976C4.66953 8.50534 4.78808 8.48294 4.90764 8.48387C5.02721 8.48481 5.14538 8.50905 5.25527 8.5552C5.36517 8.60134 5.46458 8.66845 5.5477 8.75262L8.73084 11.8702L14.4623 6.25858C14.6311 6.0931 14.8602 6.00008 15.099 6C15.3379 5.99992 15.567 6.09277 15.736 6.25814C15.9049 6.4235 15.9999 6.64783 16 6.88178C16.0001 7.11572 15.9053 7.34012 15.7364 7.5056L9.36836 13.7425C9.28478 13.8243 9.18552 13.8892 9.07627 13.9334C8.96702 13.9776 8.84994 14.0002 8.73174 14Z" fill="white"/>
</svg>
