<svg width="95" height="39" viewBox="0 0 95 39" fill="none" xmlns="http://www.w3.org/2000/svg">
<path d="M2.71388 2.41079C5.1684 -0.261626 10.2653 -0.941478 13.1417 1.54301C15.3407 3.58532 15.741 6.58661 15.9012 9.29494C15.9381 10.0328 15.9689 11.1576 14.9557 11.3787C13.9425 11.481 12.7568 11.5307 11.9068 10.9393C10.8874 10.0936 11.143 8.75327 11.0629 7.63953C10.9582 6.33235 10.9367 4.88422 10.0343 3.7843C9.24591 2.88613 7.67527 3.19565 6.93615 3.98881C5.52564 5.41759 5.37782 7.5594 6.003 9.31982C6.86223 11.7269 8.54066 13.7969 10.1329 15.8502C12.766 19.1942 15.5932 22.7537 15.9689 26.9682C16.1137 29.8921 15.818 33.0067 14.0811 35.5575C12.88 37.3428 10.6564 38.4345 8.36205 38.5782H6.63433C3.82872 38.299 1.70373 36.2208 0.773657 33.9464C0.139238 32.3435 -0.279604 30.5499 0.222387 28.8724C0.832169 26.7914 4.81115 26.8743 5.32854 28.9608C5.65807 30.7903 5.38398 32.863 6.67745 34.4383C7.59212 35.4746 9.47999 35.0021 10.1483 33.9602C11.2139 32.3877 11.2662 30.4421 11.1276 28.6596C10.7334 25.2244 8.4144 22.342 6.26477 19.6032C3.88724 16.6683 1.54974 13.5095 0.918403 9.84767C0.425651 7.29962 0.764423 4.43375 2.71388 2.41079Z" fill="#FFCC29"/>
<path d="M27.5028 0.887144C29.0057 0.0718744 30.9182 0.328889 32.4211 1.01427C35.2729 10.4161 38.1648 19.8097 41.0382 29.2088C42.9476 21.4734 44.777 13.7187 46.8712 6.02196C47.4317 4.27259 47.7581 2.1667 49.6244 1.111C50.6839 0.613544 51.9527 0.334424 53.1415 0.555514C54.3734 0.878858 54.6043 2.19986 54.5951 3.19201C54.7368 13.5086 54.977 23.8252 55.0047 34.1446C54.9801 35.1782 55.0601 36.3002 54.4442 37.2233C53.7297 38.2182 52.2453 38.4089 51.0349 38.2983C50.2003 38.1546 49.9047 37.3145 49.9694 36.6457C49.9848 27.6335 49.9447 18.6186 50.0556 9.60638C49.3319 12.616 48.7929 15.6615 47.9429 18.6462C46.711 23.1509 45.6269 27.686 44.549 32.2211C44.0317 34.0147 41.5894 34.678 39.7755 34.2524C38.5621 33.8765 38.0508 32.7048 37.7306 31.6905C35.3284 24.4968 33.2372 17.2229 31.0876 9.96842C31.0198 18.8452 31.4079 27.7219 31.257 36.5987C30.8043 38.3702 27.0562 38.735 26.6374 36.7314C26.3571 35.706 26.4896 34.6365 26.4526 33.5919C26.3448 23.278 26.4003 12.9614 26.2586 2.64757C26.1878 1.8931 26.8561 1.27958 27.5028 0.887144Z" fill="#FFCC29"/>
<path d="M67.9117 0.688674C69.3715 0.124896 71.05 0.387443 72.4266 1.02031C75.2753 10.4221 78.161 19.8129 81.0405 29.2092C82.5958 22.8419 84.1418 16.4745 85.7741 10.1237C86.3685 7.89067 86.8982 5.64109 87.6958 3.45783C88.1516 2.1838 89.2264 1.0065 90.7324 0.702497C91.6871 0.486935 92.8451 0.252023 93.7105 0.818565C94.5728 1.45143 94.579 2.55412 94.6005 3.47164C94.733 13.8877 94.9947 24.3038 94.9978 34.7199C95.0255 35.9663 94.7976 37.5802 93.2855 38.0639C92.1676 38.4701 90.1165 38.6304 89.9964 37.1519C89.9502 27.9767 89.9533 18.7959 90.061 9.61793C89.3219 12.6054 88.8014 15.6343 87.9545 18.5997C86.7195 23.1182 85.6324 27.6699 84.5483 32.2188C84.0371 34.0069 81.6072 34.6702 79.7963 34.2584C78.5953 33.8991 78.0686 32.755 77.7514 31.7518C75.34 24.5387 73.2427 17.2455 71.0869 9.96615C71.0192 18.8401 71.4041 27.7114 71.2594 36.5826C70.8344 38.343 67.1141 38.741 66.649 36.7733C66.3534 35.7397 66.4889 34.6591 66.4519 33.6062C66.338 23.378 66.4088 13.1498 66.2548 2.92444C66.0793 1.92401 66.9632 1.07558 67.9117 0.688674Z" fill="#FFCC29"/>
</svg>
